<svg xmlns="http://www.w3.org/2000/svg" width="24" height="18" viewBox="0 0 24 18">
  <path id="Icon_metro-weather3" data-name="Icon metro-weather3" d="M4.146,14.784a3.792,3.792,0,0,1-.075-.75,3.744,3.744,0,0,1,5.177-3.465,5.955,5.955,0,0,1,10.645,0,3.747,3.747,0,0,1,5.1,4.215h1.5a5,5,0,0,0,.076-.75,5.256,5.256,0,0,0-5.25-5.25,5.2,5.2,0,0,0-.74.053,7.442,7.442,0,0,0-12.019,0,5.2,5.2,0,0,0-.74-.053,5.256,5.256,0,0,0-5.25,5.25,5.135,5.135,0,0,0,.076.75Zm21.675,1.5H3.321a.75.75,0,0,0,0,1.5h22.5a.75.75,0,1,0,0-1.5Zm0,3H3.321a.75.75,0,1,0,0,1.5h22.5a.75.75,0,1,0,0-1.5Zm0,3H3.321a.75.75,0,1,0,0,1.5h22.5a.75.75,0,1,0,0-1.5Z" transform="translate(-2.571 -5.784)" fill="#fff"/>
</svg>
