<svg xmlns="http://www.w3.org/2000/svg" width="23.415" height="20" viewBox="0 0 23.415 20">
  <path id="Icon_material-directions-bike" data-name="Icon material-directions-bike" d="M15.122,6.152A1.951,1.951,0,1,0,13.171,4.2,1.957,1.957,0,0,0,15.122,6.152ZM4.878,12.494a4.878,4.878,0,1,0,0,9.756,4.878,4.878,0,1,0,0-9.756Zm0,8.293a3.415,3.415,0,1,1,0-6.829,3.415,3.415,0,1,1,0,6.829Zm5.659-9.756,2.341-2.341.78.78a6.835,6.835,0,0,0,4.976,2.049V9.567A4.847,4.847,0,0,1,15.122,8.1L13.268,6.25a2.392,2.392,0,0,0-1.561-.585,1.637,1.637,0,0,0-1.366.585L7.61,8.982a1.926,1.926,0,0,0-.585,1.366,1.637,1.637,0,0,0,.585,1.366l3.122,2.732v4.878h1.951V13.274Zm8,1.463a4.878,4.878,0,1,0,4.878,4.878A4.831,4.831,0,0,0,18.537,12.494Zm0,8.293a3.415,3.415,0,1,1,3.415-3.415A3.457,3.457,0,0,1,18.537,20.787Z" transform="translate(0 -2.25)" fill="#e8e8e8"/>
</svg>
